<svg width="24" height="24" viewBox="0 0 24 24" fill="none" xmlns="http://www.w3.org/2000/svg">
<path d="M2 1C2 1.55228 1.55228 2 1 2C0.447715 2 0 1.55228 0 1C0 0.447715 0.447715 0 1 0C1.55228 0 2 0.447715 2 1Z" fill="#9DB2BF"/>
<path d="M2 23C2 23.5523 1.55228 24 1 24C0.447715 24 0 23.5523 0 23C0 22.4477 0.447715 22 1 22C1.55228 22 2 22.4477 2 23Z" fill="#9DB2BF"/>
<path d="M24 1C24 1.55228 23.5523 2 23 2C22.4477 2 22 1.55228 22 1C22 0.447715 22.4477 0 23 0C23.5523 0 24 0.447715 24 1Z" fill="#9DB2BF"/>
<path d="M24 23C24 23.5523 23.5523 24 23 24C22.4477 24 22 23.5523 22 23C22 22.4477 22.4477 22 23 22C23.5523 22 24 22.4477 24 23Z" fill="#9DB2BF"/>
</svg>
