<svg xmlns="http://www.w3.org/2000/svg">
    <defs>
        <symbol id="pen" viewBox="0 0 12 13" fill="none">
            <path d="M10.5 11.5H1.5C1.295 11.5 1.125 11.33 1.125 11.125C1.125 10.92 1.295 10.75 1.5 10.75H10.5C10.705 10.75 10.875 10.92 10.875 11.125C10.875 11.33 10.705 11.5 10.5 11.5Z" fill="currentColor"/>
            <path d="M9.50979 2.24C8.53979 1.27 7.58979 1.245 6.59479 2.24L5.98979 2.845C5.93979 2.895 5.91979 2.975 5.93979 3.045C6.31979 4.37 7.37979 5.43 8.70479 5.81C8.72479 5.815 8.74479 5.82 8.76479 5.82C8.81979 5.82 8.86979 5.8 8.90979 5.76L9.50979 5.155C10.0048 4.665 10.2448 4.19 10.2448 3.71C10.2498 3.215 10.0098 2.735 9.50979 2.24Z" fill="currentColor"/>
            <path d="M7.80516 6.265C7.66016 6.195 7.52016 6.125 7.38516 6.045C7.27516 5.98 7.17016 5.91 7.06516 5.835C6.98016 5.78 6.88016 5.7 6.78516 5.62C6.77516 5.615 6.74016 5.585 6.70016 5.545C6.53516 5.405 6.35016 5.225 6.18516 5.025C6.17016 5.015 6.14516 4.98 6.11016 4.935C6.06016 4.875 5.97516 4.775 5.90016 4.66C5.84016 4.585 5.77016 4.475 5.70516 4.365C5.62516 4.23 5.55516 4.095 5.48516 3.955C5.39338 3.75833 5.13525 3.69991 4.98179 3.85337L2.17016 6.665C2.10516 6.73 2.04516 6.855 2.03016 6.94L1.76016 8.855C1.71016 9.195 1.80516 9.515 2.01516 9.73C2.19516 9.905 2.44516 10 2.71516 10C2.77516 10 2.83516 9.995 2.89516 9.985L4.81516 9.715C4.90516 9.7 5.03016 9.64 5.09016 9.575L7.90643 6.75873C8.05682 6.60834 8.00032 6.34957 7.80516 6.265Z" fill="currentColor"/>
        </symbol>

        <symbol id="plus" viewBox="0 0 10 10" fill="none">
            <path d="M9.07675 5.92428H5.91769V9.07572C5.91769 9.58797 5.50612 10 4.99444 10C4.48276 10 4.07119 9.58797 4.07119 9.07572V5.92428H0.923248C0.411568 5.91314 0 5.50111 0 4.98886C0 4.74276 0.100111 4.51002 0.266963 4.33185C0.444939 4.16481 0.678532 4.06459 0.923248 4.06459H4.07119V0.924276C4.07119 0.412027 4.48276 0 4.99444 0C5.50612 0 5.91769 0.412027 5.91769 0.924276V4.06459H9.07675C9.58843 4.06459 10 4.47661 10 4.98886C10 5.50111 9.58843 5.91314 9.07675 5.92428Z" fill="currentColor"/>
        </symbol>


        <!-- ___ NODE LIST ICONS ___ -->
        <symbol id="entry" viewBox="0 0 20 20">
            <path d="M14.19 0H5.81C2.17 0 0 2.17 0 5.81V14.18C0 17.83 2.17 20 5.81 20H14.18C17.82 20 19.99 17.83 19.99 14.19V5.81C20 2.17 17.83 0 14.19 0ZM8.95 15.51C8.66 15.8 8.11 16.08 7.71 16.14L5.25 16.49C5.16 16.5 5.07 16.51 4.98 16.51C4.57 16.51 4.19 16.37 3.92 16.1C3.59 15.77 3.45 15.29 3.53 14.76L3.88 12.3C3.94 11.89 4.21 11.35 4.51 11.06L8.97 6.6C9.05 6.81 9.13 7.02 9.24 7.26C9.34 7.47 9.45 7.69 9.57 7.89C9.67 8.06 9.78 8.22 9.87 8.34C9.98 8.51 10.11 8.67 10.19 8.76C10.24 8.83 10.28 8.88 10.3 8.9C10.55 9.2 10.84 9.48 11.09 9.69C11.16 9.76 11.2 9.8 11.22 9.81C11.37 9.93 11.52 10.05 11.65 10.14C11.81 10.26 11.97 10.37 12.14 10.46C12.34 10.58 12.56 10.69 12.78 10.8C13.01 10.9 13.22 10.99 13.43 11.06L8.95 15.51ZM15.37 9.09L14.45 10.02C14.39 10.08 14.31 10.11 14.23 10.11C14.2 10.11 14.16 10.11 14.14 10.1C12.11 9.52 10.49 7.9 9.91 5.87C9.88 5.76 9.91 5.64 9.99 5.57L10.92 4.64C12.44 3.12 13.89 3.15 15.38 4.64C16.14 5.4 16.51 6.13 16.51 6.89C16.5 7.61 16.13 8.33 15.37 9.09Z" fill="currentColor"/>
        </symbol>

        <symbol id="text" viewBox="0 0 20 20">
            <path d="M18.95 2.13C18.66 1.71 18.29 1.34 17.87 1.05C16.92 0.36 15.68 0 14.19 0H5.81C5.61 0 5.41 0.00999997 5.22 0.03C1.94 0.24 0 2.37 0 5.81V14.19C0 15.68 0.36 16.92 1.05 17.87C1.34 18.29 1.71 18.66 2.13 18.95C2.95 19.55 3.99 19.9 5.22 19.98C5.41 19.99 5.61 20 5.81 20H14.19C17.83 20 20 17.83 20 14.19V5.81C20 4.32 19.64 3.08 18.95 2.13ZM16.75 6.9C16.75 7.31 16.41 7.65 16 7.65C15.59 7.65 15.25 7.31 15.25 6.9V5.72C15.25 5.4 14.99 5.14 14.67 5.14H10.75V14.86H12.53C12.94 14.86 13.28 15.2 13.28 15.61C13.28 16.02 12.94 16.36 12.53 16.36H7.47C7.06 16.36 6.72 16.02 6.72 15.61C6.72 15.2 7.06 14.86 7.47 14.86H9.25V5.14H5.33C5.01 5.14 4.75 5.4 4.75 5.72V6.9C4.75 7.31 4.41 7.65 4 7.65C3.59 7.65 3.25 7.31 3.25 6.9V5.72C3.25 4.57 4.18 3.64 5.33 3.64H14.66C15.81 3.64 16.74 4.57 16.74 5.72V6.9H16.75Z" fill="currentColor"/>
        </symbol>

        <symbol id="checkbox" viewBox="0 0 20 20">
            <path fill-rule="evenodd" clip-rule="evenodd" d="M5.67 0H14.34C17.73 0 20 2.38 20 5.92V14.091C20 17.62 17.73 20 14.34 20H5.67C2.28 20 0 17.62 0 14.091V5.92C0 2.38 2.28 0 5.67 0ZM9.43 12.99L14.18 8.24C14.52 7.9 14.52 7.35 14.18 7C13.84 6.66 13.28 6.66 12.94 7L8.81 11.13L7.06 9.38C6.72 9.04 6.16 9.04 5.82 9.38C5.48 9.72 5.48 10.27 5.82 10.62L8.2 12.99C8.37 13.16 8.59 13.24 8.81 13.24C9.04 13.24 9.26 13.16 9.43 12.99Z" fill="currentColor"/>
        </symbol>

        <symbol id="radiobutton" viewBox="0 0 20 20 ">
            <path fill-rule="evenodd" clip-rule="evenodd" d="M5.67 0H14.34C17.73 0 20 2.38 20 5.92V14.091C20 17.62 17.73 20 14.34 20H5.67C2.28 20 0 17.62 0 14.091V5.92C0 2.38 2.28 0 5.67 0ZM4 10.0001C4 6.68812 6.688 4.00012 10 4.00012C13.318 4.00012 16 6.68812 16 10.0001C16 13.3121 13.312 16.0001 10 16.0001C6.688 16.0001 4 13.3121 4 10.0001ZM7.48 10.0001C7.48 11.4041 8.614 12.5381 10.018 12.5381C11.422 12.5381 12.556 11.4041 12.556 10.0001C12.556 8.59612 11.422 7.46212 10.018 7.46212C8.614 7.46212 7.48 8.59612 7.48 10.0001Z" fill="currentColor"/>
        </symbol>
        <!-- ****  -->

        <!-- ___ DROP DOWN ICONS ___ -->
        <symbol id="arrow" viewBox="0 0 15 8">
            <path d="M12.9202 0.179932H6.69024H1.08024C0.120237 0.179932 -0.359763 1.33993 0.320237 2.01993L5.50024 7.19993C6.33024 8.02993 7.68024 8.02993 8.51024 7.19993L10.4802 5.22993L13.6902 2.01993C14.3602 1.33993 13.8802 0.179932 12.9202 0.179932Z" fill="currentColor"/>
        </symbol>
        <!-- ****  -->

    </defs>
</svg>