<svg xmlns="http://www.w3.org/2000/svg">
    <defs>
        <symbol id="pen" viewBox="0 0 12 13" fill="none">
            <path d="M10.5 11.5H1.5C1.295 11.5 1.125 11.33 1.125 11.125C1.125 10.92 1.295 10.75 1.5 10.75H10.5C10.705 10.75 10.875 10.92 10.875 11.125C10.875 11.33 10.705 11.5 10.5 11.5Z" fill="currentColor"/>
            <path d="M9.50979 2.24C8.53979 1.27 7.58979 1.245 6.59479 2.24L5.98979 2.845C5.93979 2.895 5.91979 2.975 5.93979 3.045C6.31979 4.37 7.37979 5.43 8.70479 5.81C8.72479 5.815 8.74479 5.82 8.76479 5.82C8.81979 5.82 8.86979 5.8 8.90979 5.76L9.50979 5.155C10.0048 4.665 10.2448 4.19 10.2448 3.71C10.2498 3.215 10.0098 2.735 9.50979 2.24Z" fill="currentColor"/>
            <path d="M7.80516 6.265C7.66016 6.195 7.52016 6.125 7.38516 6.045C7.27516 5.98 7.17016 5.91 7.06516 5.835C6.98016 5.78 6.88016 5.7 6.78516 5.62C6.77516 5.615 6.74016 5.585 6.70016 5.545C6.53516 5.405 6.35016 5.225 6.18516 5.025C6.17016 5.015 6.14516 4.98 6.11016 4.935C6.06016 4.875 5.97516 4.775 5.90016 4.66C5.84016 4.585 5.77016 4.475 5.70516 4.365C5.62516 4.23 5.55516 4.095 5.48516 3.955C5.39338 3.75833 5.13525 3.69991 4.98179 3.85337L2.17016 6.665C2.10516 6.73 2.04516 6.855 2.03016 6.94L1.76016 8.855C1.71016 9.195 1.80516 9.515 2.01516 9.73C2.19516 9.905 2.44516 10 2.71516 10C2.77516 10 2.83516 9.995 2.89516 9.985L4.81516 9.715C4.90516 9.7 5.03016 9.64 5.09016 9.575L7.90643 6.75873C8.05682 6.60834 8.00032 6.34957 7.80516 6.265Z" fill="currentColor"/>
        </symbol>

        <symbol id="plus" viewBox="0 0 10 10" fill="none">
            <path d="M9.07675 5.92428H5.91769V9.07572C5.91769 9.58797 5.50612 10 4.99444 10C4.48276 10 4.07119 9.58797 4.07119 9.07572V5.92428H0.923248C0.411568 5.91314 0 5.50111 0 4.98886C0 4.74276 0.100111 4.51002 0.266963 4.33185C0.444939 4.16481 0.678532 4.06459 0.923248 4.06459H4.07119V0.924276C4.07119 0.412027 4.48276 0 4.99444 0C5.50612 0 5.91769 0.412027 5.91769 0.924276V4.06459H9.07675C9.58843 4.06459 10 4.47661 10 4.98886C10 5.50111 9.58843 5.91314 9.07675 5.92428Z" fill="currentColor"/>
        </symbol>
    </defs>
</svg>