<svg xmlns="http://www.w3.org/2000/svg">
    <defs>
        <symbol id="pen" viewBox="0 0 12 13" fill="none">
            <path d="M10.5 11.5H1.5C1.295 11.5 1.125 11.33 1.125 11.125C1.125 10.92 1.295 10.75 1.5 10.75H10.5C10.705 10.75 10.875 10.92 10.875 11.125C10.875 11.33 10.705 11.5 10.5 11.5Z" fill="currentColor"/>
            <path d="M9.50979 2.24C8.53979 1.27 7.58979 1.245 6.59479 2.24L5.98979 2.845C5.93979 2.895 5.91979 2.975 5.93979 3.045C6.31979 4.37 7.37979 5.43 8.70479 5.81C8.72479 5.815 8.74479 5.82 8.76479 5.82C8.81979 5.82 8.86979 5.8 8.90979 5.76L9.50979 5.155C10.0048 4.665 10.2448 4.19 10.2448 3.71C10.2498 3.215 10.0098 2.735 9.50979 2.24Z" fill="currentColor"/>
            <path d="M7.80516 6.265C7.66016 6.195 7.52016 6.125 7.38516 6.045C7.27516 5.98 7.17016 5.91 7.06516 5.835C6.98016 5.78 6.88016 5.7 6.78516 5.62C6.77516 5.615 6.74016 5.585 6.70016 5.545C6.53516 5.405 6.35016 5.225 6.18516 5.025C6.17016 5.015 6.14516 4.98 6.11016 4.935C6.06016 4.875 5.97516 4.775 5.90016 4.66C5.84016 4.585 5.77016 4.475 5.70516 4.365C5.62516 4.23 5.55516 4.095 5.48516 3.955C5.39338 3.75833 5.13525 3.69991 4.98179 3.85337L2.17016 6.665C2.10516 6.73 2.04516 6.855 2.03016 6.94L1.76016 8.855C1.71016 9.195 1.80516 9.515 2.01516 9.73C2.19516 9.905 2.44516 10 2.71516 10C2.77516 10 2.83516 9.995 2.89516 9.985L4.81516 9.715C4.90516 9.7 5.03016 9.64 5.09016 9.575L7.90643 6.75873C8.05682 6.60834 8.00032 6.34957 7.80516 6.265Z" fill="currentColor"/>
        </symbol>


        <symbol id="plus" viewBox="0 0 10 10">
            <path d="M9.07675 5.92428H5.91769V9.07572C5.91769 9.58797 5.50612 10 4.99444 10C4.48276 10 4.07119 9.58797 4.07119 9.07572V5.92428H0.923248C0.411568 5.91314 0 5.50111 0 4.98886C0 4.74276 0.100111 4.51002 0.266963 4.33185C0.444939 4.16481 0.678532 4.06459 0.923248 4.06459H4.07119V0.924276C4.07119 0.412027 4.48276 0 4.99444 0C5.50612 0 5.91769 0.412027 5.91769 0.924276V4.06459H9.07675C9.58843 4.06459 10 4.47661 10 4.98886C10 5.50111 9.58843 5.91314 9.07675 5.92428Z"/>
        </symbol>


        <symbol id="doc" viewBox="0 0 24 24">
            <path d="M12.678 19.957C12.9528 20.021 12.9779 20.3808 12.7103 20.47L11.1303 20.99C7.16034 22.27 5.07034 21.2 3.78034 17.23L2.50034 13.28C1.22034 9.31 2.28034 7.21 6.25034 5.93L6.77434 5.75647C7.1772 5.62305 7.56927 6.02711 7.45487 6.43578C7.39817 6.63836 7.34362 6.84976 7.29034 7.07L6.31034 11.26C5.21034 15.97 6.82034 18.57 11.5303 19.69L12.678 19.957Z"/>
            <path d="M17.1702 3.20999L15.5002 2.81999C12.1602 2.02999 10.1702 2.67999 9.00018 5.09999C8.70018 5.70999 8.46018 6.44999 8.26018 7.29999L7.28018 11.49C6.30018 15.67 7.59018 17.73 11.7602 18.72L13.4402 19.12C14.0202 19.26 14.5602 19.35 15.0602 19.39C18.1802 19.69 19.8402 18.23 20.6802 14.62L21.6602 10.44C22.6402 6.25999 21.3602 4.18999 17.1702 3.20999ZM15.2902 13.33C15.2002 13.67 14.9002 13.89 14.5602 13.89C14.5002 13.89 14.4402 13.88 14.3702 13.87L11.4602 13.13C11.0602 13.03 10.8202 12.62 10.9202 12.22C11.0202 11.82 11.4302 11.58 11.8302 11.68L14.7402 12.42C15.1502 12.52 15.3902 12.93 15.2902 13.33ZM18.2202 9.94999C18.1302 10.29 17.8302 10.51 17.4902 10.51C17.4302 10.51 17.3702 10.5 17.3002 10.49L12.4502 9.25999C12.0502 9.15999 11.8102 8.74999 11.9102 8.34999C12.0102 7.94999 12.4202 7.70999 12.8202 7.80999L17.6702 9.03999C18.0802 9.12999 18.3202 9.53999 18.2202 9.94999Z"/>
        </symbol>


        <!-- ___ NODE LIST ICONS ___ -->
        <symbol id="entry" viewBox="0 0 20 20">
            <path d="M14.19 0H5.81C2.17 0 0 2.17 0 5.81V14.18C0 17.83 2.17 20 5.81 20H14.18C17.82 20 19.99 17.83 19.99 14.19V5.81C20 2.17 17.83 0 14.19 0ZM8.95 15.51C8.66 15.8 8.11 16.08 7.71 16.14L5.25 16.49C5.16 16.5 5.07 16.51 4.98 16.51C4.57 16.51 4.19 16.37 3.92 16.1C3.59 15.77 3.45 15.29 3.53 14.76L3.88 12.3C3.94 11.89 4.21 11.35 4.51 11.06L8.97 6.6C9.05 6.81 9.13 7.02 9.24 7.26C9.34 7.47 9.45 7.69 9.57 7.89C9.67 8.06 9.78 8.22 9.87 8.34C9.98 8.51 10.11 8.67 10.19 8.76C10.24 8.83 10.28 8.88 10.3 8.9C10.55 9.2 10.84 9.48 11.09 9.69C11.16 9.76 11.2 9.8 11.22 9.81C11.37 9.93 11.52 10.05 11.65 10.14C11.81 10.26 11.97 10.37 12.14 10.46C12.34 10.58 12.56 10.69 12.78 10.8C13.01 10.9 13.22 10.99 13.43 11.06L8.95 15.51ZM15.37 9.09L14.45 10.02C14.39 10.08 14.31 10.11 14.23 10.11C14.2 10.11 14.16 10.11 14.14 10.1C12.11 9.52 10.49 7.9 9.91 5.87C9.88 5.76 9.91 5.64 9.99 5.57L10.92 4.64C12.44 3.12 13.89 3.15 15.38 4.64C16.14 5.4 16.51 6.13 16.51 6.89C16.5 7.61 16.13 8.33 15.37 9.09Z" fill="currentColor"/>
        </symbol>

        <symbol id="text" viewBox="0 0 20 20">
            <path d="M18.95 2.13C18.66 1.71 18.29 1.34 17.87 1.05C16.92 0.36 15.68 0 14.19 0H5.81C5.61 0 5.41 0.00999997 5.22 0.03C1.94 0.24 0 2.37 0 5.81V14.19C0 15.68 0.36 16.92 1.05 17.87C1.34 18.29 1.71 18.66 2.13 18.95C2.95 19.55 3.99 19.9 5.22 19.98C5.41 19.99 5.61 20 5.81 20H14.19C17.83 20 20 17.83 20 14.19V5.81C20 4.32 19.64 3.08 18.95 2.13ZM16.75 6.9C16.75 7.31 16.41 7.65 16 7.65C15.59 7.65 15.25 7.31 15.25 6.9V5.72C15.25 5.4 14.99 5.14 14.67 5.14H10.75V14.86H12.53C12.94 14.86 13.28 15.2 13.28 15.61C13.28 16.02 12.94 16.36 12.53 16.36H7.47C7.06 16.36 6.72 16.02 6.72 15.61C6.72 15.2 7.06 14.86 7.47 14.86H9.25V5.14H5.33C5.01 5.14 4.75 5.4 4.75 5.72V6.9C4.75 7.31 4.41 7.65 4 7.65C3.59 7.65 3.25 7.31 3.25 6.9V5.72C3.25 4.57 4.18 3.64 5.33 3.64H14.66C15.81 3.64 16.74 4.57 16.74 5.72V6.9H16.75Z" fill="currentColor"/>
        </symbol>

        <symbol id="checkbox" viewBox="0 0 20 20">
            <path fill-rule="evenodd" clip-rule="evenodd" d="M5.67 0H14.34C17.73 0 20 2.38 20 5.92V14.091C20 17.62 17.73 20 14.34 20H5.67C2.28 20 0 17.62 0 14.091V5.92C0 2.38 2.28 0 5.67 0ZM9.43 12.99L14.18 8.24C14.52 7.9 14.52 7.35 14.18 7C13.84 6.66 13.28 6.66 12.94 7L8.81 11.13L7.06 9.38C6.72 9.04 6.16 9.04 5.82 9.38C5.48 9.72 5.48 10.27 5.82 10.62L8.2 12.99C8.37 13.16 8.59 13.24 8.81 13.24C9.04 13.24 9.26 13.16 9.43 12.99Z" fill="currentColor"/>
        </symbol>

        <symbol id="select" viewBox="0 0 20 20 ">
            <path fill-rule="evenodd" clip-rule="evenodd" d="M5.67 0H14.34C17.73 0 20 2.38 20 5.92V14.091C20 17.62 17.73 20 14.34 20H5.67C2.28 20 0 17.62 0 14.091V5.92C0 2.38 2.28 0 5.67 0ZM4 10.0001C4 6.68812 6.688 4.00012 10 4.00012C13.318 4.00012 16 6.68812 16 10.0001C16 13.3121 13.312 16.0001 10 16.0001C6.688 16.0001 4 13.3121 4 10.0001ZM7.48 10.0001C7.48 11.4041 8.614 12.5381 10.018 12.5381C11.422 12.5381 12.556 11.4041 12.556 10.0001C12.556 8.59612 11.422 7.46212 10.018 7.46212C8.614 7.46212 7.48 8.59612 7.48 10.0001Z" fill="currentColor"/>
        </symbol>
        <!-- ****  -->

        <!-- ___ DROP DOWN ICONS ___ -->
        <symbol id="arrow" viewBox="0 0 15 8">
            <path d="M12.9202 0.179932H6.69024H1.08024C0.120237 0.179932 -0.359763 1.33993 0.320237 2.01993L5.50024 7.19993C6.33024 8.02993 7.68024 8.02993 8.51024 7.19993L10.4802 5.22993L13.6902 2.01993C14.3602 1.33993 13.8802 0.179932 12.9202 0.179932Z"/>
        </symbol>
        <!-- ****  -->

        <!-- ___ EXCLAMTION MARK ___ -->
        <!-- with background -->
        <symbol id="ex_mark_with_bg" width="18" height="33" viewBox="0 0 18 33" fill="none">
            <path d="M0 16.5C0 7.3873 7.3873 0 16.5 0H18V33H16.5C7.3873 33 0 25.6127 0 16.5Z" fill="#F0F4F7"/>
            <path fill-rule="evenodd" clip-rule="evenodd" d="M16.5 0C7.3873 0 0 7.3873 0 16.5C0 25.6127 7.3873 33 16.5 33H18V0H16.5ZM10 12.141C10 11.5199 10.4571 11 11.0057 11C11.5543 11 12 11.5199 12 12.141V17.872C12 18.4956 11.5543 19 11.0057 19C10.4571 19 10 18.4956 10 17.872V12.141ZM11.0057 22C10.4457 22 10 21.5429 10 20.9943C10 20.4457 10.4457 20 10.9943 20C11.5543 20 12 20.4457 12 20.9943C12 21.5429 11.5543 22 11.0057 22Z" fill="#FF5C1C"/>
        </symbol>

        <symbol id="ex_mark" viewBox="0 0 2 11">
            <path fill-rule="evenodd" clip-rule="evenodd" d="M1.00571 0C0.457143 0 0 0.519935 0 1.141V6.87196C0 7.49562 0.457143 8 1.00571 8C1.55429 8 2 7.49562 2 6.87196V1.141C2 0.519935 1.55429 0 1.00571 0ZM0 9.99429C0 10.5429 0.445714 11 1.00571 11C1.55429 11 2 10.5429 2 9.99429C2 9.44571 1.55429 9 0.994286 9C0.445714 9 0 9.44571 0 9.99429Z"/>
        </symbol>


        <!--  BOX redactor icons  -->
        <symbol id="create_node" viewBox="0 0 19 20">
            <path d="M18 8.19H15.11C12.74 8.19 10.81 6.26 10.81 3.89V1C10.81 0.45 10.36 0 9.81 0H5.57C2.49 0 0 2 0 5.57V14.43C0 18 2.49 20 5.57 20H13.43C16.51 20 19 18 19 14.43V9.19C19 8.64 18.55 8.19 18 8.19ZM11.25 12.94C11.25 12.99 11.25 13.05 11.25 13.1C11.23 13.24 11.17 13.37 11.07 13.49C11.06 13.5 11.04 13.52 11.03 13.53L9.03 15.53C8.88 15.68 8.69 15.75 8.5 15.75C8.31 15.75 8.12 15.68 7.97 15.53C7.68 15.24 7.68 14.76 7.97 14.47L8.69 13.75H4.5C4.09 13.75 3.75 13.41 3.75 13C3.75 12.59 4.09 12.25 4.5 12.25H8.69L7.97 11.53C7.82 11.38 7.75 11.19 7.75 11C7.75 10.81 7.82 10.62 7.97 10.47C8.26 10.18 8.74 10.18 9.03 10.47L11.03 12.47C11.16 12.61 11.23 12.77 11.25 12.94Z"/>
            <path d="M14.9302 6.80999C15.8802 6.81999 17.2002 6.81999 18.3302 6.81999C18.9002 6.81999 19.2002 6.14999 18.8002 5.74999C17.3602 4.29999 14.7802 1.68999 13.3002 0.209993C12.8902 -0.200007 12.1802 0.0799931 12.1802 0.649993V4.13999C12.1802 5.59999 13.4202 6.80999 14.9302 6.80999Z"/>
        </symbol>

        <symbol id="box_cancel" viewBox="0 0 18 18">
            <path fill-rule="evenodd" clip-rule="evenodd" d="M5.3915 0.666016H12.6165C15.4415 0.666016 17.3332 2.64935 17.3332 5.59935V12.4085C17.3332 15.3502 15.4415 17.3327 12.6165 17.3327H5.3915C2.5665 17.3327 0.666504 15.3502 0.666504 12.4085V5.59935C0.666504 2.64935 2.5665 0.666016 5.3915 0.666016ZM11.508 11.4993C11.7913 11.2168 11.7913 10.7584 11.508 10.4751L10.0247 8.99175L11.508 7.50759C11.7913 7.22509 11.7913 6.75842 11.508 6.47509C11.2247 6.19092 10.7663 6.19092 10.4747 6.47509L8.99967 7.95759L7.51634 6.47509C7.22467 6.19092 6.76634 6.19092 6.48301 6.47509C6.19967 6.75842 6.19967 7.22509 6.48301 7.50759L7.96634 8.99175L6.48301 10.4668C6.19967 10.7584 6.19967 11.2168 6.48301 11.4993C6.62467 11.6409 6.81634 11.7168 6.99967 11.7168C7.19134 11.7168 7.37467 11.6409 7.51634 11.4993L8.99967 10.0251L10.483 11.4993C10.6247 11.6501 10.808 11.7168 10.9913 11.7168C11.183 11.7168 11.3663 11.6409 11.508 11.4993Z"/>
        </symbol>



        <symbol id="logo" viewBox="0 0 81 101">
            <path fill-rule="evenodd" clip-rule="evenodd" d="M13.4182 68.3798C17.6624 70.5001 22.8207 71.5602 28.8932 71.5602C33.3333 71.5602 37.3163 70.9639 40.8423 69.7712C44.3682 68.5786 47.3718 66.9552 49.853 64.9012C52.3342 62.7809 54.2605 60.3293 55.6317 57.5464C57.0029 54.7635 57.7211 51.7487 57.7864 48.5019C57.8517 47.9056 57.6558 47.4087 57.1987 47.0111C56.807 46.6135 56.3173 46.4148 55.7296 46.4148H46.425C45.7068 46.4148 45.1191 46.5804 44.662 46.9117C44.205 47.243 43.8785 47.8725 43.6826 48.8001C42.6379 53.107 40.8423 56.0886 38.2957 57.7451C35.7492 59.3354 32.5824 60.1305 28.7953 60.1305C24.4205 60.1305 20.9272 58.9047 18.3154 56.4531C15.7035 53.9352 14.2997 49.8271 14.1038 44.1288C13.9079 38.4305 13.9079 32.8647 14.1038 27.4314C14.2997 21.7331 15.7035 17.6582 18.3154 15.2066C20.9272 12.6887 24.4205 11.4298 28.7953 11.4298C32.5824 11.4298 35.7492 12.2249 38.2957 13.8151C40.8423 15.4053 42.6379 18.387 43.6826 22.7601C43.8785 23.6215 44.205 24.251 44.662 24.6485C45.1191 24.9798 45.7068 25.1455 46.425 25.1455H55.7296C56.3173 25.1455 56.807 24.9467 57.1987 24.5491C57.6558 24.1516 57.8517 23.6546 57.7864 23.0583C57.7211 19.8116 57.0029 16.7968 55.6317 14.0139C54.2605 11.231 52.3342 8.81251 49.853 6.75847C47.3718 4.63816 44.3682 2.98168 40.8423 1.78901C37.3163 0.596336 33.3333 0 28.8932 0C22.886 0 17.7603 1.09328 13.5161 3.27984C9.33724 5.40015 6.10512 8.48121 3.81978 12.523C1.59974 16.5649 0.359124 21.3687 0.0979428 26.9345C0.0326475 29.7836 0 32.7653 0 35.8795C0 38.9937 0.0326475 41.9091 0.0979428 44.6258C0.359124 50.2578 1.59974 55.0948 3.81978 59.1366C6.03982 63.1122 9.2393 66.1932 13.4182 68.3798ZM67.0871 32.2518C62.8429 30.1315 57.6845 29.0713 51.6121 29.0713C47.172 29.0713 43.189 29.6677 39.663 30.8603C36.1371 32.053 33.1335 33.6764 30.6522 35.7304C28.171 37.8507 26.2448 40.3023 24.8736 43.0852C23.5024 45.8681 22.7841 48.8829 22.7188 52.1296C22.6535 52.726 22.8494 53.2229 23.3065 53.6205C23.6983 54.018 24.188 54.2168 24.7756 54.2168H34.0802C34.7985 54.2168 35.3862 54.0512 35.8432 53.7199C36.3003 53.3886 36.6268 52.7591 36.8227 51.8315C37.8674 47.5246 39.663 44.5429 42.2095 42.8864C44.756 41.2962 47.9229 40.5011 51.71 40.5011C56.0848 40.5011 59.5781 41.7269 62.1899 44.1785C64.8017 46.6964 66.2056 50.8045 66.4015 56.5028C66.5974 62.2011 66.5974 67.7669 66.4015 73.2001C66.2056 78.8985 64.8017 82.9734 62.1899 85.425C59.5781 87.9429 56.0848 89.2018 51.71 89.2018C47.9229 89.2018 44.756 88.4067 42.2095 86.8165C39.663 85.2262 37.8674 82.2446 36.8227 77.8714C36.6268 77.0101 36.3003 76.3806 35.8432 75.983C35.3862 75.6517 34.7985 75.4861 34.0802 75.4861H24.7756C24.188 75.4861 23.6983 75.6849 23.3065 76.0824C22.8494 76.48 22.6535 76.9769 22.7188 77.5733C22.7841 80.82 23.5024 83.8348 24.8736 86.6177C26.2448 89.4006 28.171 91.8191 30.6522 93.8731C33.1335 95.9934 36.137 97.6499 39.663 98.8426C43.1889 100.035 47.172 100.632 51.6121 100.632C57.6192 100.632 62.7449 99.5383 66.9891 97.3517C71.168 95.2314 74.4001 92.1504 76.6855 88.1085C78.9055 84.0667 80.1461 79.2629 80.4073 73.6971C80.4726 70.8479 80.5053 67.8663 80.5053 64.7521C80.5053 61.6379 80.4726 58.7225 80.4073 56.0058C80.1461 50.3738 78.9055 45.5368 76.6855 41.495C74.4654 37.5194 71.266 34.4384 67.0871 32.2518Z"/>
        </symbol>




        


    </defs>
</svg>